<svg xmlns="http://www.w3.org/2000/svg" viewBox="0 0 64 64" fill="none">
  <defs>
    <linearGradient id="g" x1="10" y1="8" x2="54" y2="58" gradientUnits="userSpaceOnUse">
      <stop stop-color="#3B82F6"/>
      <stop offset="1" stop-color="#1D4ED8"/>
    </linearGradient>
  </defs>
  <rect width="64" height="64" rx="16" fill="url(#g)"/>
  <!-- trophy cup -->
  <path d="M22 18h20v8c0 6.627-5.373 12-12 12s-12-5.373-12-12v-8z" stroke="#fff" stroke-width="2.6" stroke-linejoin="round"/>
  <path d="M22 22h-4.5A5.5 5.5 0 0 0 23 27.5" stroke="#fff" stroke-width="2.4" stroke-linecap="round"/>
  <path d="M42 22h4.5A5.5 5.5 0 0 1 41 27.5" stroke="#fff" stroke-width="2.4" stroke-linecap="round"/>
  <path d="M32 38v6" stroke="#fff" stroke-width="2.6" stroke-linecap="round"/>
  <path d="M25 50h14a2 2 0 0 0 2-2v-2H23v2a2 2 0 0 0 2 2z" fill="#fff"/>
  <path d="M26 46h12v2H26v-2z" fill="#fff" opacity=".9"/>
  <!-- star accent -->
  <circle cx="46" cy="16" r="3" fill="#BFDBFE"/>
</svg>
