<svg xmlns="http://www.w3.org/2000/svg" viewBox="0 0 160 160" fill="none">
  <ellipse cx="80" cy="130" rx="44" ry="10" fill="#111827" opacity=".08"/>
  <path d="M43 47c14-23 55-25 78-7 25 20 25 61 3 81-22 21-64 24-88 3-24-22-13-55 7-77Z" fill="#F7F4ED"/>
  <path d="M43 47c14-23 55-25 78-7 25 20 25 61 3 81-22 21-64 24-88 3-24-22-13-55 7-77Z" stroke="#202124" stroke-width="4" stroke-linecap="round"/>
  <path d="M62 66c2-7 8-10 14-8" stroke="#202124" stroke-width="4" stroke-linecap="round"/>
  <path d="M94 58c6-2 12 1 15 7" stroke="#202124" stroke-width="4" stroke-linecap="round"/>
  <path d="M82 68c-6 12-11 23-13 34h20" stroke="#202124" stroke-width="4" stroke-linecap="round" stroke-linejoin="round"/>
  <circle cx="54" cy="93" r="8" fill="#E9E1D4"/>
  <circle cx="111" cy="91" r="10" fill="#E9E1D4"/>
  <path d="M87 32c5 3 9 3 14 0-3 5-3 9 0 14-5-3-9-3-14 0 3-5 3-9 0-14Z" fill="#111827"/>
  <path d="M111 26c3 2 6 2 9 0-2 3-2 6 0 9-3-2-6-2-9 0 2-3 2-6 0-9Z" fill="#111827"/>
</svg>
