<svg xmlns="http://www.w3.org/2000/svg" viewBox="0 0 160 160" fill="none">
  <ellipse cx="80" cy="130" rx="44" ry="10" fill="#9A3412" opacity=".1"/>
  <path d="M43 48c14-23 55-25 78-7 25 20 25 61 3 81-22 21-64 24-88 3-24-22-13-55 7-77Z" fill="#FFF4EA"/>
  <path d="M43 48c14-23 55-25 78-7 25 20 25 61 3 81-22 21-64 24-88 3-24-22-13-55 7-77Z" stroke="#2F241F" stroke-width="4" stroke-linecap="round"/>
  <path d="M103 28c7-6 17-4 22 3-8 0-14 3-18 10 0-5-1-9-4-13Z" fill="#FB923C" stroke="#2F241F" stroke-width="3" stroke-linejoin="round"/>
  <path d="M90 31c-4-8 0-17 8-20 0 8 4 14 11 17-7 0-13 1-19 3Z" fill="#F97316" stroke="#2F241F" stroke-width="3" stroke-linejoin="round"/>
  <path d="M62 66c2-7 8-10 14-8" stroke="#2F241F" stroke-width="4" stroke-linecap="round"/>
  <path d="M94 58c6-2 12 1 15 7" stroke="#2F241F" stroke-width="4" stroke-linecap="round"/>
  <path d="M82 68c-6 12-11 23-13 34h20" stroke="#2F241F" stroke-width="4" stroke-linecap="round" stroke-linejoin="round"/>
  <circle cx="54" cy="93" r="8" fill="#FED7AA"/>
  <circle cx="111" cy="91" r="10" fill="#FED7AA"/>
</svg>
